<mxfile host="app.diagrams.net" modified="2021-12-27T11:17:55.244Z" agent="5.0 (Windows NT 10.0; Win64; x64) AppleWebKit/537.36 (KHTML, like Gecko) Chrome/96.0.4664.110 Safari/537.36" etag="tuLCP2Xm7RGVywzezNUu" version="16.1.0" type="github">
  <diagram id="h1bc-GkFXOywaLTGmo5z" name="Page-1">
    <mxGraphModel dx="1605" dy="984" grid="0" gridSize="10" guides="1" tooltips="1" connect="1" arrows="1" fold="1" page="0" pageScale="1" pageWidth="850" pageHeight="1100" math="0" shadow="0">
      <root>
        <mxCell id="0" />
        <mxCell id="1" parent="0" />
        <mxCell id="hJWFSvQQYyMpn1cycKUW-10" value="Person" style="swimlane;fontStyle=1;align=center;verticalAlign=top;childLayout=stackLayout;horizontal=1;startSize=26;horizontalStack=0;resizeParent=1;resizeParentMax=0;resizeLast=0;collapsible=1;marginBottom=0;sketch=1;hachureGap=4;fontFamily=Roboto;fontSource=https%3A%2F%2Ffonts.googleapis.com%2Fcss%3Ffamily%3DRoboto;fontSize=20;" vertex="1" parent="1">
          <mxGeometry x="-327" y="-209" width="225" height="223" as="geometry" />
        </mxCell>
        <mxCell id="hJWFSvQQYyMpn1cycKUW-11" value="-name: String&#xa;-age: Integer" style="text;strokeColor=none;fillColor=none;align=left;verticalAlign=top;spacingLeft=4;spacingRight=4;overflow=hidden;rotatable=0;points=[[0,0.5],[1,0.5]];portConstraint=eastwest;sketch=1;hachureGap=4;fontFamily=Roboto;fontSource=https%3A%2F%2Ffonts.googleapis.com%2Fcss%3Ffamily%3DRoboto;fontSize=20;" vertex="1" parent="hJWFSvQQYyMpn1cycKUW-10">
          <mxGeometry y="26" width="225" height="71" as="geometry" />
        </mxCell>
        <mxCell id="hJWFSvQQYyMpn1cycKUW-14" value="" style="line;strokeWidth=1;fillColor=none;align=left;verticalAlign=middle;spacingTop=-1;spacingLeft=3;spacingRight=3;rotatable=0;labelPosition=right;points=[];portConstraint=eastwest;sketch=1;hachureGap=4;fontFamily=Roboto;fontSource=https%3A%2F%2Ffonts.googleapis.com%2Fcss%3Ffamily%3DRoboto;fontSize=20;" vertex="1" parent="hJWFSvQQYyMpn1cycKUW-10">
          <mxGeometry y="97" width="225" height="8" as="geometry" />
        </mxCell>
        <mxCell id="hJWFSvQQYyMpn1cycKUW-13" value="+getName() : String&#xa;+setName(name) : void&#xa;+getAge() : Integer&#xa;+setAge() : void&#xa;" style="text;strokeColor=none;fillColor=none;align=left;verticalAlign=top;spacingLeft=4;spacingRight=4;overflow=hidden;rotatable=0;points=[[0,0.5],[1,0.5]];portConstraint=eastwest;sketch=1;hachureGap=4;fontFamily=Roboto;fontSource=https%3A%2F%2Ffonts.googleapis.com%2Fcss%3Ffamily%3DRoboto;fontSize=20;" vertex="1" parent="hJWFSvQQYyMpn1cycKUW-10">
          <mxGeometry y="105" width="225" height="118" as="geometry" />
        </mxCell>
      </root>
    </mxGraphModel>
  </diagram>
</mxfile>
